<?xml version="1.0" encoding="utf-8"?>
<!-- Generator: Adobe Illustrator 21.1.0, SVG Export Plug-In . SVG Version: 6.00 Build 0)  -->
<svg version="1.1" id="Layer_1" xmlns="http://www.w3.org/2000/svg" xmlns:xlink="http://www.w3.org/1999/xlink" x="0px" y="0px"
	 viewBox="0 0 100 100" style="enable-background:new 0 0 100 100;" xml:space="preserve">
<style type="text/css">
	.st0{fill:none;stroke:#00DCD6;stroke-width:3;stroke-miterlimit:10;}
	.st1{fill:#00DCD6;stroke:#339A98;stroke-width:3;stroke-miterlimit:10;}
	.st2{fill:#FFFFFF;}
	.st3{font-family:'Moon-Bold';}
	.st4{font-size:21px;}
	.st5{fill:none;stroke:#00A79D;stroke-width:2;stroke-miterlimit:10;}
	.st6{fill:none;stroke:#00A79D;stroke-width:2;stroke-linecap:round;stroke-miterlimit:10;}
	.st7{fill:#66CAC4;stroke:#00A79D;stroke-width:3;stroke-miterlimit:10;}
	.st8{font-size:14px;}
</style>
<circle class="st0" cx="50" cy="50" r="47.5"/>
<circle class="st1" cx="50" cy="50" r="39.5"/>
<path class="st1" d="M75.5,51.7L51.6,75.7c-4.9,4.9-13,4.9-17.9,0l0,0c-4.9-4.9-4.9-13,0-17.9l23.9-23.9c4.9-4.9,13-4.9,17.9,0l0,0
	C80.5,38.7,80.5,46.8,75.5,51.7z"/>
<text transform="matrix(1 0 0 1 23.3335 42.5)" class="st2 st3 st4">B</text>
<path class="st5" d="M60.6,39.3c2.4-2.3,6.1-2.4,8.6-0.4c2.4,1.9,3.1,5.4,1.6,8.2"/>
<path class="st6" d="M37.5,69.3c-0.2-0.1-1.8-0.9-2.2-2.8c-0.5-2.2,1.1-3.7,1.2-3.8l7.8-8"/>
<circle class="st5" cx="46.5" cy="52.5" r="0.5"/>
<line class="st7" x1="62.5" y1="62.5" x2="46.5" y2="46.5"/>
<text transform="matrix(1 0 0 1 35 44.5)" class="st2 st3 st8">9</text>
</svg>
